<svg width="129" height="109" viewBox="0 0 129 109" fill="none" xmlns="http://www.w3.org/2000/svg">
<g clip-path="url(#clip0)">
<path d="M106.091 32.5007L81.0285 37.4064C80.4135 37.5597 80.106 37.8664 79.9523 38.4796L75.3396 55.0365C75.0321 55.8031 75.6471 56.7229 76.4159 56.8762C76.8772 57.0295 77.3384 56.8762 77.6459 56.7229L106.859 36.4866C107.013 36.3333 107.167 36.0267 107.167 35.8734L107.321 33.5738C107.321 33.1139 107.013 32.654 106.398 32.5007C106.398 32.5007 106.244 32.5007 106.091 32.5007ZM105.476 34.8002L105.629 35.8734L105.937 35.1069L75.8009 54.1167L78.261 55.8031L82.8736 39.3994L81.6436 40.4725L105.476 34.8002Z" fill="#4F4D4C"/>
<path d="M34.9021 26.2152L16.1441 84.7777C15.9903 85.2377 16.2978 85.8509 16.7591 86.0042C17.2203 86.1575 17.6816 85.8509 17.9891 85.391L38.131 27.2883C38.4385 26.3685 37.9772 25.2953 37.0547 24.9887C36.1321 24.8354 35.2096 25.2953 34.9021 26.2152Z" fill="#333333"/>
<path d="M105.783 6.1322C107.321 6.1322 109.012 9.045 107.936 10.2714C107.013 11.3446 103.63 11.6512 103.477 8.8917C103.477 7.81856 104.092 6.89873 105.014 6.28551C105.322 6.1322 105.629 6.1322 105.783 6.1322Z" fill="#333333"/>
<path d="M105.629 32.1941C106.398 31.7342 107.167 31.7342 107.628 32.0408L109.166 32.9607C109.627 33.2673 109.934 33.8805 109.934 34.8003C109.934 36.4867 108.704 38.633 107.167 39.5528C106.244 40.166 105.475 39.8594 105.475 39.8594L103.63 38.7863C103.169 38.4797 102.862 37.8664 102.862 36.9466C102.862 35.2602 104.092 33.114 105.629 32.1941Z" fill="#A0A0A0"/>
<path d="M95.3276 21.9227C95.4814 21.9227 95.4814 21.9227 95.3276 21.9227C98.7102 17.7834 107.628 8.89175 117.468 13.1843C114.239 11.9579 110.242 12.7244 106.244 15.024C103.323 16.7103 100.248 19.3165 97.4802 22.8425C89.0237 33.2673 86.2561 47.218 91.1763 54.1168C91.6375 54.73 92.0988 55.3432 92.56 55.6498C83.4885 48.7511 86.5636 33.4206 95.3276 21.9227Z" fill="#383838"/>
<path d="M91.7912 32.1941C93.175 28.9747 95.1738 25.7553 97.4802 22.8425C97.7877 22.3826 98.2489 21.9227 98.5564 21.4628C101.017 18.7033 103.63 16.557 106.244 15.024C110.857 12.4178 115.469 11.8046 118.852 13.7975L119.467 14.1041C116.084 12.2645 111.472 12.7244 106.859 15.3306C104.245 16.8636 101.632 19.0099 99.1715 21.7694C98.8639 22.2293 98.4027 22.6892 98.0952 23.1491C95.7889 26.0619 93.79 29.2814 92.4063 32.5008C88.7161 40.9325 88.2549 49.5176 91.7912 54.4234C92.56 55.4965 93.4825 56.4164 94.5588 57.0296L93.9438 56.723C92.8675 56.1098 91.945 55.3432 91.1762 54.1168C87.4861 49.211 87.9474 40.4726 91.7912 32.1941Z" fill="#4F4F4F"/>
<path d="M98.0953 23.1491C100.863 19.7764 103.938 17.1702 106.859 15.3305C111.472 12.7244 116.085 12.1111 119.467 14.1041C120.697 14.8706 124.234 17.0169 125.617 22.2293C127.77 30.2012 124.08 42.0057 116.7 50.2841C113.317 54.1168 104.245 62.3952 94.5589 57.0296C93.4827 56.4163 92.5601 55.6498 91.7914 54.4234C86.8712 47.6779 89.6388 33.5739 98.0953 23.1491ZM96.0965 53.6568C99.0178 57.6428 104.245 57.9494 109.473 54.73C112.087 53.1969 114.701 50.8974 117.161 47.8313C124.541 38.6329 127.001 26.3685 122.696 20.3896C119.775 16.4037 114.547 16.0971 109.319 19.3165C106.706 20.8495 104.092 23.1491 101.632 26.2152C94.4052 35.4135 91.7914 47.6779 96.0965 53.6568Z" fill="#383838"/>
<path d="M101.17 25.4487C103.784 22.2293 106.552 19.7764 109.319 18.2433C115.008 15.0239 120.543 15.1772 123.618 19.4698C128.231 25.9086 125.463 38.9395 117.622 48.7511C115.008 51.9705 112.241 54.4234 109.473 55.9564C103.784 59.1758 98.2489 59.0225 95.1738 54.73C90.715 48.2912 93.3288 35.2602 101.17 25.4487ZM96.2501 51.8172C96.5576 52.2771 96.7114 52.4304 97.0189 52.5837C99.6327 54.1168 103.323 53.6568 107.013 51.6639C109.319 50.2841 111.779 48.2912 113.932 45.5317C120.697 37.0999 122.85 26.0619 119.006 20.5429C118.391 19.6231 117.622 19.0099 116.699 18.55C116.699 18.55 116.392 18.3966 116.238 18.3966C112.702 17.4768 105.014 20.8495 99.0177 30.6611C91.0225 44.3052 96.2501 51.8172 96.2501 51.8172Z" fill="#1E1E1E"/>
<path d="M108.858 52.277L105.629 50.4374C101.939 52.5836 98.5566 52.737 96.2503 51.3572L99.4791 53.1969C101.939 54.5766 105.322 54.27 108.858 52.277Z" fill="#C2C2C2"/>
<path d="M118.237 21.0028L115.008 19.1631C117.315 20.5429 118.852 23.4557 118.852 27.5949C118.852 30.8143 118.083 34.1871 116.546 37.4065L119.775 39.3994C121.159 36.18 122.081 32.654 122.081 29.5879C122.081 25.2954 120.544 22.3826 118.237 21.0028Z" fill="#C2C2C2"/>
<path d="M119.775 39.3994L116.546 37.5598C115.316 40.4726 113.471 43.232 111.472 45.5316L114.701 47.3713C116.7 45.0717 118.545 42.3122 119.775 39.3994Z" fill="#E7E7E7"/>
<path d="M114.701 47.3713L111.472 45.5316C109.781 47.5246 107.782 49.2109 105.629 50.4374L108.858 52.277C111.011 51.0506 113.01 49.3642 114.701 47.3713Z" fill="#C2C2C2"/>
<path d="M94.7126 42.7722L99.3252 40.0127L95.0201 41.5457C95.0201 41.3924 95.0201 41.2391 95.1738 41.0858L101.017 39.0928L103.477 37.5598L101.17 37.7131L95.3276 39.706C95.3276 39.5527 95.3276 39.3994 95.4813 39.2461L99.7865 37.7131L95.9426 38.0197C95.9426 37.8664 96.0964 37.7131 96.0964 37.5598L101.17 37.0999L103.477 36.3333L101.632 36.0267L96.2501 36.6399C96.2501 36.4866 96.2501 36.3333 96.4039 36.18L100.401 35.7201L96.8651 34.9536C96.8651 34.8003 97.0189 34.647 97.0189 34.647L101.632 35.5668L103.63 35.2602L102.093 34.4937L97.3264 33.8804C97.4802 33.7271 97.4802 33.5738 97.6339 33.5738L101.17 34.0338L98.4027 32.654C98.4027 32.5007 98.5564 32.5007 98.5564 32.3474L102.247 34.1871L104.399 34.4937L103.015 32.9606L99.3252 31.2743C99.3252 31.121 99.479 31.121 99.479 30.9677L102.247 32.1941L100.094 30.0478C100.094 29.8945 100.248 29.8945 100.248 29.7412L103.015 32.654L104.86 33.7271L103.784 31.5809L101.17 28.9747C101.17 28.8214 101.324 28.8214 101.478 28.6681L103.323 30.5077L101.939 27.9015C102.093 27.7482 102.093 27.7482 102.247 27.5949L104.245 31.4276L105.783 32.9606L105.168 30.5077L103.169 26.6751C103.323 26.5218 103.323 26.5218 103.477 26.3685L104.86 28.9747L104.092 25.602C104.245 25.4487 104.245 25.2954 104.399 25.2954L105.475 30.3544L106.09 31.5809L105.937 29.5879L104.553 24.9887C104.707 24.8354 104.707 24.8354 104.86 24.6821L105.783 27.9015L105.475 24.0689C105.629 23.9156 105.783 23.7623 105.783 23.7623L106.09 29.5879L106.705 31.8875L107.013 28.8214L106.705 22.6892C106.859 22.5359 107.013 22.5359 107.013 22.3826L107.32 26.6751L108.243 21.4627C108.397 21.3094 108.55 21.3094 108.704 21.1561L107.782 28.5148V30.661L108.397 28.2082L109.165 20.8495C109.319 20.6962 109.473 20.6962 109.627 20.5429L109.165 26.0619L110.703 20.083C110.857 20.083 111.011 20.083 111.164 20.083L109.012 28.3615L108.704 31.121L109.934 28.0548L112.087 19.7764C112.241 19.7764 112.394 19.7764 112.548 19.6231L111.011 25.602L113.624 19.3165C113.778 19.3165 113.932 19.3165 114.086 19.1631L110.396 27.9015L109.934 29.7412L110.857 28.0548L114.086 19.3165C114.239 19.1631 114.239 19.1631 114.239 19.1631L114.393 19.3165C114.393 19.3165 114.393 19.3165 114.393 19.4698L112.087 25.7553L115.162 19.9297C115.316 19.7764 115.316 19.7764 115.316 19.7764L115.469 19.9297V20.083L111.011 28.3615L109.934 31.121L111.779 28.6681L116.392 20.2363C116.546 20.083 116.546 19.9297 116.546 19.9297H116.699V20.083L113.317 26.2152L117.314 20.6962C117.468 20.5429 117.468 20.5429 117.468 20.5429H117.622C117.622 20.5429 117.622 20.5429 117.468 20.5429C117.468 20.5429 117.468 20.5429 117.622 20.5429V20.6962L112.087 28.3615L110.703 30.9677L112.548 29.128L117.929 21.4627C118.083 21.3094 118.083 21.3094 118.083 21.4627H118.237C118.237 21.4627 118.237 21.4627 118.083 21.4627C118.083 21.4627 118.083 21.4627 118.237 21.4627V21.616L114.239 27.2883L118.852 22.5359C118.852 22.5359 118.852 22.5359 119.006 22.5359H119.16C119.16 22.5359 119.16 22.6892 119.16 22.8425L112.856 29.2813L111.164 31.5809L113.317 29.8945L119.621 23.1491C119.621 23.1491 119.621 23.1491 119.775 23.1491H119.928C119.928 23.1491 119.928 23.3024 119.928 23.4557L115.162 28.5148L120.236 24.5288C120.236 24.5288 120.236 24.5288 120.39 24.5288H120.543C120.543 24.6821 120.543 24.6821 120.543 24.8354L113.778 30.2011L112.087 32.0408L113.932 30.9677L120.543 25.4487C120.543 25.4487 120.543 25.4487 120.697 25.4487H120.851C120.851 25.602 120.851 25.602 120.851 25.7553L115.162 30.5077L120.39 27.5949C120.39 27.5949 120.39 27.5949 120.543 27.5949H120.697C120.697 27.5949 120.697 27.7482 120.543 27.7482L113.624 31.7342L111.626 33.4205L113.624 32.8073L120.543 28.5148C120.543 28.5148 120.543 28.5148 120.697 28.5148H120.851C120.851 28.5148 120.851 28.6681 120.697 28.6681L115.316 32.1941L120.543 30.3544C120.543 30.3544 120.543 30.3544 120.697 30.3544H120.851C120.851 30.3544 120.851 30.3544 120.697 30.3544C120.697 30.3544 120.851 30.3544 120.851 30.5077C120.851 30.661 120.851 30.661 120.697 30.661L113.778 33.1139L111.164 34.647L113.471 34.4937L120.236 32.1941C120.236 32.1941 120.236 32.1941 120.39 32.1941H120.543C120.543 32.1941 120.543 32.1941 120.39 32.1941C120.39 32.1941 120.543 32.1941 120.543 32.3474C120.543 32.3474 120.543 32.5007 120.39 32.5007L114.854 34.4937L119.928 34.0338L120.082 34.1871C120.082 34.1871 120.082 34.1871 120.082 34.3404C120.082 34.3404 120.082 34.4937 119.928 34.4937L113.471 34.9536L111.164 35.7201L113.009 36.0267L119.621 35.2602L119.775 35.4135C119.775 35.4135 119.775 35.4135 119.775 35.5668C119.775 35.5668 119.775 35.7201 119.621 35.7201L114.239 36.3333L119.006 37.2532L119.16 37.4065V37.5598L119.006 37.7131L113.163 36.4866L111.164 36.7932L112.702 37.5598L118.852 38.3263L119.006 38.4796V38.6329L118.852 38.7862L113.778 38.173L118.083 40.3193H118.237V40.4726L118.083 40.6259H117.929L112.702 38.0197L110.549 37.7131L111.933 39.2461L117.161 41.699H117.314V41.8523L117.161 42.0056H117.007L112.548 40.0127L116.084 43.5387C116.084 43.5387 116.084 43.692 115.931 43.8453H115.777H115.623L111.472 39.5527L109.627 38.7862L110.703 40.9325L115.008 45.0717C115.008 45.0717 115.008 45.225 114.854 45.3783H114.701H114.547L111.164 42.0056L113.624 46.7581C113.624 46.7581 113.624 46.9114 113.471 47.0647H113.317H113.163L110.242 41.2391L108.704 39.706L109.319 42.3122L112.548 47.5246C112.548 47.5246 112.548 47.6779 112.394 47.8312H112.241H112.087L109.781 43.3854L111.011 48.9044C111.011 48.9044 111.011 49.0577 110.857 49.211H110.703H110.549L109.012 42.1589L108.397 40.9325L108.55 42.9255L110.549 49.6709C110.549 49.6709 110.549 49.8242 110.396 49.9775H110.242H110.088L108.55 44.9184L109.165 50.5907C109.165 50.5907 109.165 50.744 109.012 50.744H108.858H108.704L108.243 42.9255L107.628 40.6259L107.32 43.692L107.782 51.3572C107.782 51.3572 107.782 51.5105 107.628 51.5105H107.474H107.32L107.013 45.8383L106.244 52.2771C106.244 52.2771 106.244 52.4304 106.09 52.4304C106.09 52.4304 106.09 52.4304 105.937 52.4304H105.783C105.783 52.4304 105.783 52.4304 105.783 52.2771L106.859 43.8453L106.705 41.699L106.09 44.1519L105.322 52.4304C105.322 52.5837 105.322 52.5837 105.168 52.5837C105.168 52.5837 105.168 52.5837 105.014 52.5837H104.86C104.86 52.5837 104.86 52.5837 104.86 52.4304L105.475 46.2982L103.784 52.737C103.784 52.737 103.784 52.8903 103.63 52.8903L103.477 52.737C103.477 52.737 103.477 52.737 103.477 52.5837L105.783 43.8453L105.937 41.2391L104.707 44.3052L102.4 53.0436C102.4 53.0436 102.4 53.1969 102.247 53.1969L102.093 53.0436C102.093 53.0436 102.093 53.0436 102.093 52.8903L103.784 46.6048L101.017 53.0436L100.863 53.1969L100.709 53.0436V52.8903L104.399 44.1519L104.86 42.3122L103.938 43.9986L100.709 52.5837L100.555 52.737L100.401 52.5837V52.4304L102.708 46.1449L99.479 52.1238L99.3252 52.2771H99.1715C99.1715 52.1238 103.63 43.8453 103.63 43.8453L104.707 41.0858L102.862 43.5387L98.2489 51.9705L98.0952 52.1238L97.9414 51.9705C97.9414 51.8172 101.324 45.6849 101.324 45.6849L97.3264 51.2039H97.1726H97.0189H96.8651C96.8651 51.2039 96.8651 51.2039 96.8651 51.0506C96.8651 50.8973 102.554 43.2321 102.554 43.2321L103.938 40.6259L102.093 42.4655L96.7114 50.1308H96.5576H96.4039H96.2501C96.2501 50.1308 96.2501 50.1308 96.2501 49.9775C96.2501 49.8242 100.401 44.1519 100.401 44.1519L95.7889 48.9044H95.6351H95.4813V48.7511C95.4813 48.7511 95.4813 48.7511 95.4813 48.5977L101.785 42.1589L103.477 39.8594L101.324 41.5457L95.0201 48.2911C95.0201 48.1378 95.0201 47.9845 94.8663 47.8312L99.479 42.9255L94.7126 46.6048C94.7126 46.4515 94.7126 46.2982 94.7126 46.1449L101.017 41.2391L102.862 39.706L101.017 40.7792L94.7126 46.1449C94.7126 45.9916 94.7126 45.8383 94.7126 45.6849L99.3252 41.699L94.5588 44.4585C94.5588 44.3052 94.5588 44.1519 94.5588 43.9986L100.863 40.4726L102.862 38.6329L100.863 39.3994L94.5588 43.2321V43.0788C94.5588 42.9255 94.7126 42.7722 94.7126 42.7722ZM109.473 32.1941L109.319 32.654L109.781 32.1941L110.549 30.661L109.473 32.1941ZM110.088 32.5007L109.781 33.1139L110.242 32.8073L111.164 31.4276L110.088 32.5007ZM112.087 33.7271L110.703 34.1871L109.934 34.8003H110.242L112.087 33.7271ZM112.087 35.1069L110.549 35.2602L110.088 35.5668H110.549L112.087 35.1069ZM111.779 36.18L110.396 35.8734L109.781 36.0267L110.242 36.18H111.779ZM111.472 37.4065L110.242 36.7932L109.473 36.9466L109.781 37.2532L111.472 37.4065ZM110.857 38.6329L109.781 37.5598H109.165L109.473 38.173L110.857 38.6329ZM109.934 39.706L109.165 38.173L108.704 38.0197L108.858 38.6329L109.934 39.706ZM108.397 39.8594L108.858 40.6259L108.55 38.9395L108.397 38.7862V39.8594ZM108.243 30.3544L107.935 31.7342V32.3474L108.089 31.8875L108.243 30.3544ZM108.089 41.0858L107.935 39.8594L107.628 39.2461V39.5527L108.089 41.0858ZM107.474 31.8875V30.661L107.167 32.5007L107.32 32.8073L107.474 31.8875ZM107.013 41.5457L107.32 39.706L107.167 39.3994L106.859 40.3193L107.013 41.5457ZM102.4 37.0999L103.938 36.9466L104.399 36.6399L103.938 36.4866L102.4 37.0999ZM102.708 35.8734L104.092 36.18L104.707 36.0267L104.245 35.8734H102.708ZM103.015 34.8003L104.245 35.4135L104.86 35.2602L104.553 34.9536L103.015 34.8003ZM106.859 32.8073V32.5007L106.398 30.9677V32.1941L106.859 32.8073ZM106.552 40.3193V39.706L106.398 40.166L106.244 41.8523L106.552 40.3193ZM106.09 33.2672V32.3474L105.629 31.5809L106.09 33.2672ZM105.783 34.1871L105.629 33.5738L104.553 32.5007L105.322 34.0338L105.783 34.1871ZM105.014 34.1871L103.63 33.5738L104.707 34.647H105.322L105.014 34.1871ZM105.014 39.8594L105.168 39.3994L104.707 39.8594L103.938 41.3924L105.014 39.8594ZM104.399 39.706L104.707 39.0928L104.245 39.3994L103.323 40.7792L104.399 39.706ZM103.784 38.0197L104.399 37.4065H104.092L102.4 38.4796L103.784 38.0197Z" fill="#A0A0A0"/>
<path d="M108.858 20.083C117.007 15.3305 123.772 19.1632 123.772 28.5148C123.772 37.8664 117.161 49.3643 109.012 54.1167C100.863 58.8692 94.0976 55.0366 94.0976 45.6849C93.9438 36.18 100.709 24.6821 108.858 20.083ZM108.858 52.2771C116.084 48.1378 122.081 37.8664 122.081 29.4346C122.081 21.0028 116.084 17.6301 108.858 21.9226C101.632 26.0619 95.6351 36.3333 95.6351 44.7651C95.6351 53.0436 101.632 56.4163 108.858 52.2771Z" fill="#686868"/>
<path d="M107.782 33.4206C108.551 32.9607 109.319 32.9607 109.781 33.2673L111.318 34.1872C111.779 34.4938 112.087 35.107 112.087 36.0268C112.087 37.7132 110.857 39.8595 109.319 40.7793C108.397 41.3925 107.628 41.0859 107.628 41.0859L105.783 40.0128C105.322 39.7062 105.014 39.0929 105.014 38.1731C105.014 36.4867 106.244 34.3405 107.782 33.4206Z" fill="#686868"/>
<path d="M85.4875 30.5077C87.4863 26.2152 90.1001 21.9226 93.1752 18.3966C95.789 15.4838 98.7103 12.8776 101.785 11.1912C107.321 7.97184 112.394 7.66523 115.931 9.8115L124.08 14.564L93.6364 35.2602C93.6364 35.2602 93.6364 35.4135 93.4827 35.4135L85.3337 30.661C85.4875 30.661 85.4875 30.5077 85.4875 30.5077Z" fill="#FFAF24"/>
<path d="M109.934 15.9438C114.547 13.3376 118.698 12.7244 122.081 13.7975C123.311 14.2574 124.387 14.8706 125.464 15.6372V17.1702L93.4827 35.5669C97.019 27.2884 103.015 19.7764 109.934 15.9438Z" fill="#CD8005"/>
<path opacity="0.5" d="M94.0977 33.8804C94.559 32.9606 95.0203 31.4275 95.9428 29.8945C96.4041 29.1279 96.8653 28.2081 97.4803 27.2883C98.0954 26.3684 98.7104 25.4486 99.3254 24.5288C100.094 23.609 100.709 22.6891 101.632 21.7693C102.4 20.8495 103.323 20.0829 104.246 19.1631C106.091 17.4767 108.089 16.097 110.242 15.0239C111.318 14.4106 112.395 14.104 113.317 13.6441C114.086 13.3375 115.162 13.1842 116.085 13.0309C117.93 12.7243 119.467 12.8776 120.544 13.1842C121.005 13.3375 121.466 13.3375 121.774 13.4908C121.927 13.6441 122.081 13.6441 122.081 13.6441C122.081 13.6441 121.466 13.4908 120.39 13.4908C119.313 13.3375 117.776 13.4908 116.085 13.9507C115.162 14.104 114.393 14.4106 113.317 14.8706C112.395 15.3305 111.472 15.7904 110.549 16.2503C109.627 16.8635 108.704 17.4767 107.782 18.09C106.859 18.8565 105.937 19.4697 105.014 20.3895C104.092 21.1561 103.323 21.9226 102.554 22.8424C101.785 23.7623 101.017 24.5288 100.248 25.4486C98.8641 27.135 97.6341 28.8213 96.5578 30.3544C95.6353 31.8874 94.7128 33.1139 94.2515 34.0337C93.7902 34.9535 93.4827 35.4135 93.4827 35.4135C93.4827 35.4135 93.6365 34.8002 94.0977 33.8804Z" fill="#FFAF24"/>
<path d="M88.7163 53.0436C88.1012 53.8101 54.5828 73.2799 52.4302 73.4332L43.3587 66.841C42.2824 66.0745 41.5136 64.8481 41.2061 63.4683C39.9761 57.4894 38.5923 48.1378 38.4385 42.9254C38.4385 41.0858 38.4385 39.2461 39.0536 37.4064C40.1298 34.3403 42.7437 31.8875 45.665 30.3544C48.5863 28.8214 51.8152 28.2081 55.044 27.4416C57.6579 26.8284 60.1179 26.3685 62.7318 25.7552C65.0381 25.2953 67.3444 24.6821 69.6507 24.2222C74.1096 23.3024 78.5685 22.5358 83.1811 21.9226C85.4874 21.616 87.7937 21.3094 89.9463 21.0028C91.1763 20.8495 94.8664 22.5358 96.8652 23.9156C97.634 24.3755 97.634 25.4486 97.019 26.0619C87.7937 36.4866 89.3313 52.1237 88.7163 53.0436Z" fill="#4F4D4C"/>
<path opacity="0.6" d="M41.0524 46.4515C41.8212 43.8453 42.2825 39.2462 43.9738 36.1801L54.7366 42.4656C54.7366 42.4656 47.2026 55.8031 47.2026 57.1829C47.2026 60.8622 47.3564 65.4614 48.1251 70.0605L43.5125 66.6878C42.4362 65.9213 41.6674 64.6948 41.3599 63.3151C40.7449 60.4023 40.1299 56.5696 39.6686 53.0436C39.9761 50.8974 40.4374 48.7511 41.0524 46.4515Z" fill="#333333"/>
<path opacity="0.7" d="M91.9451 31.5809C91.9451 31.5809 86.5637 39.7061 87.0249 51.8172L80.2597 48.9044L71.6495 42.4656L91.7913 30.8144L91.9451 31.5809Z" fill="#282828"/>
<path d="M18.4505 82.3249C19.2193 81.865 19.988 81.865 20.4493 82.1716L21.9868 83.0914C22.4481 83.398 22.7556 84.0112 22.7556 84.9311C22.7556 86.6174 21.5256 88.7637 19.988 89.6835C19.0655 90.2968 18.2967 89.9901 18.2967 89.9901L16.4517 88.917C15.9904 88.6104 15.6829 87.9972 15.6829 87.0773C15.6829 85.391 16.9129 83.2447 18.4505 82.3249Z" fill="#A0A0A0"/>
<path d="M8.30272 72.0534C11.6853 67.9142 20.6031 59.0225 30.4434 63.315C27.2145 62.0886 23.2169 62.8551 19.2193 65.1547C16.2979 66.841 13.2229 69.4472 10.4553 72.9733C1.99879 83.398 -0.768784 97.3488 4.15136 104.248C4.61262 104.861 5.07387 105.474 5.53514 105.781C-3.69013 98.8818 -0.461279 83.5513 8.30272 72.0534Z" fill="#383838"/>
<path d="M4.61277 82.3249C5.99656 79.1055 7.99537 75.8861 10.3017 72.9733C10.6092 72.5134 11.0705 72.0534 11.378 71.5935C13.838 68.834 16.4519 66.6878 19.0657 65.1547C23.6783 62.5485 28.291 61.9353 31.6736 63.9283L32.2886 64.2349C28.906 62.2419 24.4471 62.8551 19.6807 65.4613C17.0669 66.9944 14.4531 69.1406 11.993 71.9001C11.6855 72.3601 11.2242 72.82 10.9167 73.2799C8.61038 76.1927 6.61158 79.4121 5.22779 82.6315C1.53768 91.0633 1.07641 99.6484 4.61277 104.554C5.38154 105.627 6.30407 106.547 7.38035 107.16L6.76533 106.854C5.68905 106.24 4.76652 105.474 3.99775 104.248C0.461393 99.3418 0.922659 90.6034 4.61277 82.3249Z" fill="#4F4F4F"/>
<path d="M10.9166 73.2798C13.6842 69.9071 16.7593 67.3009 19.8344 65.4613C24.447 62.8551 29.0597 62.2419 32.4423 64.2348C33.6723 65.0014 37.2086 67.1476 38.5924 72.36C40.745 80.3319 37.0549 92.1364 29.6747 100.415C26.2921 104.247 17.2206 112.526 7.53403 107.16C6.45775 106.547 5.53522 105.781 4.76645 104.554C-0.307449 97.8087 2.61388 83.7046 10.9166 73.2798ZM9.07158 103.788C11.9929 107.774 17.2206 108.08 22.4482 104.861C25.062 103.328 27.6759 101.028 30.1359 97.962C37.5162 88.7637 39.9762 76.4993 35.6711 70.5204C32.7498 66.5344 27.5221 66.2278 22.2945 69.4472C19.6806 70.9803 17.0668 73.2798 14.6067 76.3459C7.22652 85.5443 4.76645 97.8087 9.07158 103.788Z" fill="#383838"/>
<path d="M14.1454 75.5794C16.7592 72.36 19.5268 69.9071 22.2943 68.3741C27.9833 65.1547 33.5184 65.308 36.5935 69.6005C41.2061 76.0393 38.4386 89.0703 30.5971 98.8818C27.9833 102.101 25.2157 104.554 22.4481 106.087C16.7592 109.307 11.224 109.153 8.14892 104.861C3.69004 98.4219 6.30387 85.391 14.1454 75.5794ZM9.2252 101.948C9.53271 102.408 9.68646 102.561 9.99397 102.714C12.6078 104.247 16.2979 103.788 19.988 101.795C22.2943 100.415 24.7544 98.4219 26.907 95.6624C33.5184 87.3839 35.8247 76.1926 31.9809 70.827C31.3659 69.9071 30.5971 69.2939 29.6746 68.834C29.5208 68.834 29.367 68.6807 29.2133 68.6807C25.6769 67.7609 17.9892 71.1336 11.9928 80.9451C3.8438 94.436 9.2252 101.948 9.2252 101.948Z" fill="#1E1E1E"/>
<path d="M21.8333 102.408L18.6044 100.568C14.9143 102.714 11.5317 102.868 9.22538 101.488L12.4542 103.328C14.7605 104.707 18.1431 104.401 21.8333 102.408Z" fill="#C2C2C2"/>
<path d="M31.2123 71.1335L27.9835 69.2939C30.2898 70.6736 31.8273 73.5864 31.8273 77.7257C31.8273 80.9451 31.0585 84.3178 29.521 87.5372L32.7498 89.3769C34.1336 86.1575 35.0562 82.6314 35.0562 79.5653C35.0562 75.4261 33.5186 72.5133 31.2123 71.1335Z" fill="#C2C2C2"/>
<path d="M32.7498 89.5302L29.5209 87.6905C28.2909 90.6033 26.4458 93.3628 24.447 95.6624L27.6759 97.502C29.6747 95.2024 31.366 92.443 32.7498 89.5302Z" fill="#E7E7E7"/>
<path d="M27.6758 97.502L24.4469 95.6624C22.7556 97.6553 20.7568 99.3417 18.6043 100.568L21.8331 102.408C23.8319 101.181 25.8307 99.495 27.6758 97.502Z" fill="#C2C2C2"/>
<path d="M7.53408 92.903L12.1467 90.1435L7.84159 91.6765C7.84159 91.5232 7.84159 91.3699 7.99535 91.2166L13.6843 89.0703L16.1443 87.5373L13.838 87.6906L7.99535 89.6835C7.99535 89.5302 7.99535 89.3769 8.1491 89.2236L12.4542 87.6906L8.61036 87.9972C8.61036 87.8439 8.76412 87.6906 8.76412 87.5373L13.838 87.384L16.1443 86.6174L14.2993 86.3108L8.91787 86.9241C8.91787 86.7708 8.91787 86.6174 9.07162 86.4641L13.0692 86.0042L9.53289 85.2377C9.53289 85.0844 9.68665 84.9311 9.68665 84.9311L14.2993 85.8509L16.2981 85.5443L14.7605 84.7778L9.99415 84.1646C10.1479 84.0113 10.1479 83.858 10.3017 83.858L13.838 84.3179L11.0704 82.9381C11.0704 82.7848 11.2242 82.7848 11.2242 82.6315L14.9143 84.4712L17.0669 84.7778L15.6831 83.2447L11.993 81.5584C11.993 81.4051 12.1467 81.4051 12.1467 81.2518L14.9143 82.4782L12.7617 80.3319C12.7617 80.1786 12.9155 80.1786 12.9155 80.0253L15.6831 82.9381L17.5281 83.7046L16.4518 81.5584L13.838 78.9522C13.838 78.7989 13.9918 78.7989 14.1455 78.6456L15.9906 80.4852L14.6068 77.8791C14.7605 77.7257 14.7605 77.7257 14.9143 77.5724L16.9131 81.4051L18.4506 82.9381L17.8356 80.3319L15.8368 76.4993C15.9906 76.346 15.9906 76.346 16.1443 76.1927L17.5281 78.7989L16.7593 75.4262C16.9131 75.2729 16.9131 75.1196 17.0669 75.1196L18.2969 80.3319L18.9119 81.5584L18.7582 79.5654L17.3744 74.9663C17.5281 74.813 17.5281 74.8129 17.6819 74.6596L18.6044 77.8791L18.2969 74.0464C18.4506 73.8931 18.6044 73.7398 18.6044 73.7398L18.9119 79.5654L19.8344 81.7117L20.1419 78.6456L19.8344 72.5134C19.9882 72.3601 20.1419 72.3601 20.1419 72.2068L20.4495 76.6526L21.0645 71.5935C21.2182 71.4402 21.372 71.4402 21.5257 71.2869L20.6032 78.6456L20.757 80.7919L21.372 78.339L22.1408 70.9803C22.2945 70.827 22.4483 70.827 22.602 70.6737L22.1408 76.1927L23.6783 70.2138C23.8321 70.2138 23.9858 70.2138 24.1396 70.2138L21.987 78.4923L21.6795 81.2518L22.9095 78.1857L25.0621 70.0605C25.2158 70.0605 25.3696 70.0605 25.5233 69.9072L23.9858 75.8861L26.5996 69.6006C26.7534 69.6006 26.9071 69.6006 27.0609 69.4473L23.3708 78.1857L22.9095 80.0253L23.832 78.339L27.0609 69.6006C27.2146 69.4473 27.2147 69.4473 27.2147 69.4473L27.3684 69.6006C27.3684 69.6006 27.3684 69.6006 27.3684 69.7539L25.0621 76.0394L28.2909 70.0605C28.4447 69.9072 28.4447 69.9072 28.4447 69.9072L28.5984 70.0605V70.2138L24.1396 78.4923L23.0633 81.2518L24.9083 78.7989L29.521 70.3671C29.6747 70.2138 29.6747 70.2138 29.6747 70.2138H29.8285V70.3671L26.4459 76.4993L30.4435 70.9803C30.5972 70.827 30.5972 70.827 30.5972 70.827H30.751C30.751 70.827 30.751 70.827 30.5972 70.827C30.5972 70.827 30.5972 70.827 30.751 70.827V70.9803L25.2158 78.6456L23.832 81.2518L25.6771 79.4121L31.0585 71.7468C31.2123 71.5935 31.2123 71.5935 31.2123 71.7468H31.366C31.366 71.7468 31.366 71.7468 31.2123 71.7468C31.2123 71.7468 31.2123 71.7468 31.366 71.7468V71.9002L27.3684 77.5724L31.981 72.82C31.981 72.82 31.981 72.82 32.1348 72.82H32.2885C32.2885 72.82 32.2885 72.9733 32.2885 73.1266L25.9846 79.5654L24.2933 81.865L26.4459 80.1786L32.7498 73.4332C32.7498 73.4332 32.7498 73.4332 32.9036 73.4332H33.0573C33.0573 73.4332 33.0573 73.5865 33.0573 73.7398L28.2909 78.7989L33.0573 75.1196C33.0573 75.1196 33.0573 75.1196 33.2111 75.1196H33.3648C33.3648 75.2729 33.3648 75.2729 33.3648 75.4262L26.5996 80.7919L24.9083 82.6315L26.7534 81.5584L33.3648 76.0394C33.3648 76.0394 33.3648 76.0394 33.5186 76.0394H33.6723C33.6723 76.1927 33.6723 76.1927 33.6723 76.346L28.5984 80.6385L33.8261 77.7257C33.8261 77.7257 33.8261 77.7257 33.9798 77.7257H34.1336C34.1336 77.7257 34.1336 77.8791 33.9798 77.8791L27.0609 81.865L25.0621 83.5513L27.0609 82.7848L33.9798 78.4923C33.9798 78.4923 33.9798 78.4923 34.1336 78.4923H34.2874C34.2874 78.4923 34.2873 78.6456 34.1336 78.6456L28.7522 81.865L33.9798 80.0253C33.9798 80.0253 33.9798 80.0253 34.1336 80.0253H34.2874C34.2874 80.0253 34.2873 80.0253 34.1336 80.0253C34.1336 80.0253 34.2874 80.0253 34.2874 80.1786C34.2874 80.3319 34.2873 80.3319 34.1336 80.3319L27.2147 82.7848L24.6008 84.3179L26.9071 84.1646L33.8261 81.7117C33.8261 81.7117 33.8261 81.7117 33.9798 81.7117H34.1336C34.1336 81.7117 34.1336 81.7117 33.9798 81.7117C33.9798 81.7117 34.1336 81.7117 34.1336 81.865C34.1336 81.865 34.1336 82.0183 33.9798 82.0183L28.4447 84.0113L33.5186 83.5513L33.6723 83.7046C33.6723 83.7046 33.6723 83.7046 33.6723 83.858C33.6723 83.858 33.6723 84.0113 33.5186 84.0113L27.0609 84.4712L24.7546 85.2377L25.9846 86.1575L32.5961 85.391L32.7498 85.5443C32.7498 85.5443 32.7498 85.5443 32.7498 85.6976C32.7498 85.6976 32.7498 85.8509 32.5961 85.8509L27.2147 86.4641L31.8273 87.384L31.981 87.5373V87.6906L31.8273 87.8439L25.9846 86.6174L23.9858 86.9241L25.5233 87.6906L31.6735 88.4571L31.8273 88.6104V88.7637L31.6735 88.917L26.5996 88.3038L30.9048 90.4501H31.0585V90.6034L30.9048 90.7567H30.751L25.5233 88.1505L23.3708 87.8439L24.7546 89.3769L29.9822 91.8298H30.136V91.9831L29.9822 92.1364H29.8285L25.3696 90.1435L28.7522 93.5162C28.7522 93.5162 28.7522 93.6695 28.5984 93.8228H28.4447H28.2909L24.1396 89.5302L22.2945 88.7637L23.3708 90.91L27.9834 95.0492C27.9834 95.0492 27.9834 95.2025 27.8297 95.3558H27.6759H27.5222L24.1396 91.9831L26.7534 96.5823C26.7534 96.5823 26.7534 96.7356 26.5996 96.8889H26.4459H26.2921L23.3708 91.0633L21.8332 89.5302L22.4483 91.9831L25.3696 97.6554C25.3696 97.6554 25.3696 97.8087 25.2158 97.962H25.0621H24.9083L22.602 93.5162L23.832 99.0352C23.832 99.0352 23.8321 99.1885 23.6783 99.3418H23.5245H23.3708L21.8332 92.2897L21.2182 91.0633L21.372 93.0563L23.5245 99.6484C23.5245 99.6484 23.5245 99.8017 23.3708 99.955H23.217H23.0633L21.5257 94.8959L21.987 100.875C21.987 100.875 21.987 101.028 21.8332 101.028H21.6795H21.5257L21.0645 93.2096L20.4495 90.91L20.1419 93.9761L20.6032 101.641C20.6032 101.641 20.6032 101.795 20.4495 101.795H20.2957H20.1419L19.8344 96.1224L19.0657 102.561C19.0657 102.561 19.0657 102.714 18.9119 102.714C18.9119 102.714 18.9119 102.714 18.7582 102.714H18.6044C18.6044 102.714 18.6044 102.714 18.6044 102.561L19.6807 94.1294L19.5269 91.9831L18.9119 94.436L18.1431 102.714C18.1431 102.868 18.1431 102.868 17.9894 102.868C17.9894 102.868 17.9894 102.868 17.8356 102.868H17.6819C17.6819 102.868 17.6819 102.868 17.6819 102.714L18.2969 96.5823L16.6056 103.021C16.6056 103.021 16.6056 103.174 16.4518 103.174L16.2981 103.021C16.2981 103.021 16.2981 103.021 16.2981 102.868L18.6044 94.1294L18.9119 91.3699L17.6819 94.436L15.3756 103.174C15.3756 103.174 15.3756 103.328 15.2218 103.328L15.0681 103.174C15.0681 103.174 15.0681 103.174 15.0681 103.021L16.7593 96.7356L13.9918 103.174L13.838 103.328L13.6843 103.174V103.021L17.3744 94.2827L17.8356 92.443L16.9131 94.1294L13.6843 102.714L13.5305 102.868L13.3768 102.714V102.561L15.6831 96.2757L12.4542 102.255L12.3005 102.408H12.1467C12.1467 102.255 16.6056 93.9761 16.6056 93.9761L17.6819 91.2166L15.8368 93.6695L11.2242 102.101L11.0704 102.255L10.9167 102.101C10.9167 101.948 14.2993 95.8158 14.2993 95.8158L10.3017 101.335H10.1479H9.99415H9.8404C9.8404 101.335 9.8404 101.335 9.8404 101.181C9.8404 101.028 15.5293 93.3629 15.5293 93.3629L16.7593 91.0633L14.9143 92.903L9.53289 100.568H9.37913H9.22538H9.07162C9.07162 100.568 9.07162 100.568 9.07162 100.415C9.07162 100.262 13.223 94.5893 13.223 94.5893L8.61036 99.3418H8.45661H8.30285V99.1885C8.30285 99.1885 8.30285 99.1885 8.30285 99.0352L14.6068 92.5963L16.2981 90.2968L14.1455 91.9831L7.84159 98.7286C7.84159 98.5753 7.84159 98.4219 7.68783 98.2686L12.3005 93.3629L7.53408 97.0422C7.53408 96.8889 7.53408 96.7356 7.53408 96.5823L13.838 91.6765L15.5293 89.8369L13.6843 90.91L7.38033 96.2757C7.38033 96.1224 7.38033 95.9691 7.38033 95.8158L11.993 91.8298L7.22658 94.5893C7.22658 94.436 7.22658 94.2827 7.22658 94.1294L13.838 90.4501L15.8368 88.7637L13.838 89.5302L7.53408 93.3629V93.2096C7.53408 93.0563 7.53408 92.903 7.53408 92.903ZM22.4483 82.3249L22.2945 82.7848L22.7558 82.3249L23.5245 80.7919L22.4483 82.3249ZM23.0633 82.6315L22.7558 83.2447L23.217 82.9381L24.1396 81.5584L23.0633 82.6315ZM25.0621 83.858L23.6783 84.3179L22.9095 84.9311H23.217L25.0621 83.858ZM24.9083 85.2377L23.3708 85.391L22.9095 85.6976L23.3708 85.8509L24.9083 85.2377ZM24.7546 86.3108L23.3708 86.0042L22.7558 86.1575L23.217 86.3108H24.7546ZM24.4471 87.5373L23.217 86.9241L22.4483 87.0774L22.7558 87.384L24.4471 87.5373ZM23.6783 88.7637L22.602 87.6906H21.987L22.2945 88.3038L23.6783 88.7637ZM22.7558 89.8369L21.987 88.3038L21.5257 88.1505L21.6795 88.917L22.7558 89.8369ZM21.372 89.9902L21.8332 90.7567L21.5257 89.0703L21.372 88.917V89.9902ZM21.2182 80.4852L20.9107 81.865V82.4782L21.0645 82.0183L21.2182 80.4852ZM21.0645 91.2166L20.9107 89.9902L20.6032 89.3769V89.6835L21.0645 91.2166ZM20.4495 82.0183V80.7919L20.1419 82.6315V82.9381L20.4495 82.0183ZM19.9882 91.6765L20.2957 89.8369L20.1419 89.5302L19.8344 90.4501L19.9882 91.6765ZM15.3756 87.2307L16.9131 87.0774L17.3744 86.7707L16.9131 86.6174L15.3756 87.2307ZM15.5293 86.0042L16.9131 86.3108L17.5281 86.1575L17.0669 86.0042H15.5293ZM15.8368 84.9311L17.0669 85.5443L17.8356 85.391L17.5281 85.0844L15.8368 84.9311ZM19.6807 83.0914V82.7848L19.2194 81.2518L19.3732 82.4782L19.6807 83.0914ZM19.5269 90.4501V89.8369L19.3732 90.2968L19.2194 91.9831L19.5269 90.4501ZM18.9119 83.398V82.4782L18.4506 81.7117L18.9119 83.398ZM18.7582 84.3179L18.6044 83.7046L17.5281 82.6315L18.2969 84.1646L18.7582 84.3179ZM17.9894 84.3179L16.6056 83.7046L17.6819 84.7778H18.2969L17.9894 84.3179ZM17.8356 90.1435L17.9894 89.6835L17.5281 90.1435L16.7593 91.6765L17.8356 90.1435ZM17.3744 89.8369L17.6819 89.2236L17.2206 89.5302L16.2981 90.91L17.3744 89.8369ZM16.6056 88.1505L17.3744 87.5373H17.0669L15.3756 88.6104L16.6056 88.1505Z" fill="#A0A0A0"/>
<path d="M21.6796 70.2137C29.8285 65.4613 36.5938 69.2939 36.5938 78.6455C36.5938 87.9971 29.9823 99.495 21.8333 104.247C13.6843 109 6.91914 105.167 6.91914 95.8157C6.91914 86.3108 13.5306 74.8129 21.6796 70.2137ZM21.8333 102.408C29.0598 98.2686 35.0562 87.9971 35.0562 79.5653C35.0562 71.1336 29.0598 67.7608 21.8333 72.0534C14.6069 76.1926 8.61043 86.4641 8.61043 94.8959C8.61043 103.174 14.6069 106.547 21.8333 102.408Z" fill="#686868"/>
<path d="M20.6031 83.5514C21.3718 83.0915 22.1406 83.0915 22.6019 83.3981L24.1394 84.3179C24.6007 84.6245 24.9082 85.2377 24.9082 86.1576C24.9082 87.8439 23.6782 89.9902 22.1406 90.91C21.2181 91.5233 20.4493 91.2166 20.4493 91.2166L18.6043 90.1435C18.143 89.8369 17.8355 89.2237 17.8355 88.3038C17.8355 86.6175 19.0655 84.4712 20.6031 83.5514Z" fill="#686868"/>
<path d="M63.3468 21.616C63.3468 21.616 63.6543 21.4627 63.8081 21.4627C67.1907 20.8494 70.4195 19.4697 71.6496 18.8565C72.8796 18.2432 76.5697 16.5569 81.6436 12.8776C84.1037 11.1912 86.2562 9.04493 88.8701 7.66519C89.7926 7.20527 90.5614 7.20527 91.4839 7.66519L81.1823 18.5499L63.6543 24.8354C61.963 23.4556 62.578 21.9226 63.3468 21.616Z" fill="#333333"/>
<path d="M64.8843 21.616C66.7293 21.3094 70.5732 20.3896 75.9546 17.4768C76.2621 17.3235 76.5696 17.1702 76.8771 17.0169C80.106 15.1772 82.8735 13.1842 85.0261 11.4979C87.1787 9.81151 88.87 8.43176 90.1 7.81854C90.8688 7.35863 91.33 7.20532 91.6376 7.51193L105.783 15.7904C97.1727 23.1491 88.2549 29.7412 77.9534 32.9606L63.9617 24.8354C63.9617 24.8354 63.808 24.8354 63.808 24.6821C62.8855 24.0689 63.808 21.7693 64.8843 21.616Z" fill="#444342"/>
<path d="M78.7222 30.0478C80.5673 29.128 85.7949 29.5879 99.1716 19.6231C101.324 17.9367 103.015 16.5569 104.245 15.9437C105.014 15.4838 105.476 15.3305 105.783 15.6371C106.091 15.7904 106.706 16.2503 106.859 17.0169C107.936 21.0028 93.7902 28.8214 93.1752 29.128C88.255 31.8875 81.6436 34.8003 78.1072 32.8073C78.1072 32.8073 77.9535 32.8073 77.9535 32.654C77.1847 32.3474 77.7997 30.5077 78.7222 30.0478Z" fill="#333333"/>
<path d="M82.2585 31.4275C88.8699 29.7411 95.3276 25.6019 100.863 21.4626C103.015 19.7763 104.707 18.5498 105.783 17.9366C106.552 17.4767 106.859 17.4767 106.859 18.2432C107.013 19.623 101.478 24.3754 95.0201 28.0548C83.9498 34.4936 78.8759 33.5737 80.1059 32.194C80.5672 31.5808 81.4897 31.5808 82.2585 31.4275Z" fill="#282828"/>
<path d="M49.0476 55.1899L59.0417 38.633C59.5029 37.8664 60.5792 37.5598 61.5017 38.0197C62.2705 38.4797 62.578 39.5528 62.1167 40.4726L52.1227 57.0296C51.6614 57.7961 51.3539 58.7159 51.5077 59.6358L51.8152 68.0676C51.8152 68.9874 52.2765 69.9072 53.0452 70.5204L57.1966 73.7399C57.9654 74.3531 58.8879 74.3531 59.6567 73.8932L92.8676 54.2701L92.2526 53.9635L88.87 55.6498C88.4088 55.9565 87.7937 55.8031 87.3325 55.6498L78.876 51.204C78.7222 51.0507 78.5685 50.8974 78.4147 50.7441L70.727 42.0057C70.112 41.2391 70.112 40.166 70.8807 39.5528C71.6495 38.9396 72.7258 38.9396 73.3408 39.7061L80.721 48.1379L88.1012 51.9705L91.6376 50.2842C92.2526 49.9775 92.8676 50.1309 93.3289 50.4375L96.0965 52.1238C96.2502 52.2771 96.404 52.4304 96.5577 52.5837C97.019 53.197 97.1728 54.1168 97.019 54.8833C96.8652 55.6498 96.404 56.4164 95.6352 56.8763L61.5017 76.9593C60.5792 77.5725 59.5029 77.7258 58.5804 77.7258C57.3504 77.7258 56.1203 77.2659 55.044 76.4994L50.8927 73.2799C49.3551 72.0535 48.2788 70.2138 48.2788 68.2209L47.9713 59.7891C47.8176 58.256 48.2788 56.5697 49.0476 55.1899Z" fill="#B7B7B7"/>
<path d="M54.7367 68.2209C55.0442 67.4543 55.6592 66.5345 56.5818 65.6147C58.8881 63.0085 62.8857 59.7891 67.6521 57.1829C73.4948 53.8102 78.5687 52.2771 80.1062 53.3503L82.8738 54.8833C81.1825 53.9635 76.2623 55.3432 70.4197 58.7159C65.807 61.3221 61.8094 64.5415 59.3493 67.1477C58.5806 68.0676 57.9656 68.9874 57.5043 69.7539C57.3505 70.2138 57.1968 70.5204 57.1968 70.9804C57.1968 71.4403 57.3505 71.7469 57.8118 72.0535L55.0442 70.5204C54.7367 70.3671 54.4292 69.9072 54.4292 69.4473C54.4292 69.1407 54.583 68.6808 54.7367 68.2209Z" fill="#777674"/>
<path d="M70.2658 58.8693C77.4923 54.73 83.335 53.5036 83.335 56.1098C83.335 58.716 77.4923 64.235 70.2658 68.3742C63.0394 72.5134 57.1967 73.7399 57.1967 71.1337C57.1967 68.5275 63.0394 63.0085 70.2658 58.8693Z" fill="#605E5C"/>
<path d="M64.7307 44.9184V49.5176L61.8094 47.9845V43.3854L64.7307 44.9184Z" fill="#777674"/>
<path d="M64.7307 38.4796L67.4983 40.166L64.7307 44.9184L61.8094 43.3854L64.7307 38.4796Z" fill="#898785"/>
<path d="M68.7283 36.1801L71.4958 37.8664L67.4982 40.166L64.7307 38.4796L68.7283 36.1801Z" fill="#777674"/>
<path d="M67.4982 40.166L71.4958 37.8665L74.2634 39.3995V43.9987L71.4958 48.9044L67.4982 51.204L64.7307 49.5176V44.9185L67.4982 40.166Z" fill="#605E5C"/>
<path d="M73.9559 25.7552C80.1061 33.1139 65.3457 42.3122 53.0453 44.1519C44.7426 45.3783 39.9762 42.3122 38.7462 34.0337C38.4386 32.3474 38.2849 30.661 38.7462 28.9746C41.36 17.6301 67.9595 18.3966 73.9559 25.7552Z" fill="#FFAF24"/>
<path opacity="0.6" d="M42.5899 25.4487C42.2824 23.9156 46.8951 21.9226 52.584 21.1561C58.2729 20.3896 63.193 21.0028 63.3468 22.5359C63.6543 24.0689 59.0417 26.0619 53.3528 26.8284C47.6638 27.7482 42.8975 27.135 42.5899 25.4487Z" fill="url(#paint0_linear)"/>
<path d="M90.5613 51.0507C90.5613 51.0507 92.7139 49.3643 95.9427 47.218C97.634 46.1449 99.4791 44.7652 101.632 43.5387C103.784 42.159 105.937 40.9325 108.243 39.5528C112.856 36.9466 117.468 34.4937 121.005 32.8074C124.541 31.121 127.155 30.2012 127.155 30.2012C127.77 30.0479 128.385 30.2012 128.692 30.6611C129.154 31.2743 129.154 32.1941 128.539 32.654C128.539 32.654 126.54 34.3404 123.157 36.64C119.928 38.9396 115.47 41.6991 110.857 44.3052C108.551 45.685 106.244 46.9114 104.092 47.9846C101.939 49.0577 99.7866 50.1308 98.0953 51.0507C94.559 52.737 92.0989 53.8102 92.0989 53.8102C91.4839 53.9635 90.8688 53.8102 90.4076 53.3502C89.7926 52.4304 89.9463 51.5106 90.5613 51.0507Z" fill="#B7B7B7"/>
<path d="M61.963 71.5935C62.1167 71.5935 62.2705 71.5935 62.4242 71.4402C62.7317 71.2869 62.8855 70.9803 62.8855 70.6736V57.4894C62.8855 53.6568 60.8867 50.1307 57.5041 48.2911L55.8128 47.3712C55.3515 47.0646 54.8903 47.2179 54.5828 47.6779C54.2752 48.1378 54.429 48.5977 54.8903 48.9043L56.7353 49.8241C59.5029 51.3572 61.1942 54.27 61.1942 57.4894V69.1406L60.8867 68.9873C60.4254 68.6807 59.9642 68.834 59.6567 69.2939C59.3491 69.7538 59.5029 70.2137 59.9642 70.5203L61.6555 71.4402C61.6555 71.4402 61.8092 71.5935 61.963 71.5935Z" fill="#B7B7B7"/>
<path d="M65.6532 69.4472C65.8069 69.4472 65.9607 69.4472 66.1144 69.2939C66.4219 69.1406 66.5757 68.834 66.5757 68.5273V55.3431C66.5757 51.5105 64.5769 47.9844 61.1943 46.1448L58.4267 44.6117C57.9654 44.3051 57.5042 44.4584 57.1967 44.9183C56.8891 45.3783 57.0429 45.8382 57.5042 46.1448L60.2717 47.6778C63.0393 49.2109 64.7306 52.1237 64.7306 55.3431V66.9943L64.4231 66.841C63.9619 66.5344 63.5006 66.6877 63.1931 67.1476C62.8856 67.6075 63.0393 68.0674 63.5006 68.374L65.1919 69.2939C65.3456 69.4472 65.4994 69.4472 65.6532 69.4472Z" fill="#B7B7B7"/>
<path d="M72.726 63.1618C73.0335 63.0085 73.341 63.0085 73.6485 63.0085L82.105 67.9143L80.4137 70.9804L71.9572 66.0746C71.8034 65.9213 71.6497 65.6147 71.6497 65.3081C71.4959 64.5415 71.9572 63.4684 72.726 63.1618Z" fill="#333333"/>
<path d="M79.9523 70.0605C79.9523 70.827 80.5673 71.1337 81.1823 70.827C81.7973 70.3671 82.4124 69.4473 82.4124 68.6808C82.4124 67.9142 81.7973 67.6076 81.1823 67.9142C80.4135 68.3742 79.9523 69.294 79.9523 70.0605Z" fill="#262626"/>
<path d="M31.5195 11.3446C31.6733 11.3446 31.9808 11.3446 32.1345 11.1913C32.7495 10.8847 33.057 9.96483 32.5958 9.35161L28.5982 2.14626C28.2906 1.53304 27.3681 1.22643 26.7531 1.68635C26.1381 1.99296 25.8306 2.91279 26.2918 3.52601L30.2895 10.7314C30.597 11.038 31.0582 11.3446 31.5195 11.3446Z" fill="#333333"/>
<path d="M37.3622 26.3685C37.6697 26.3685 38.131 26.2152 38.2847 25.9086C38.5922 25.4486 38.4385 24.6821 37.8235 24.5288L34.9021 22.8425C34.5946 22.6891 34.2871 22.2292 34.2871 21.9226L32.7496 10.7313C32.5958 10.1181 32.1345 9.81151 31.5195 9.81151C30.9045 9.65821 30.597 10.1181 30.597 10.7313L32.1345 21.9226C32.2883 22.9958 32.9033 23.9156 33.8258 24.3755L36.7472 26.0619C37.0547 26.2152 37.2084 26.3685 37.3622 26.3685Z" fill="#4E4E4E"/>
<path d="M28.7522 23.4557C28.1371 24.8354 30.2897 27.5949 31.8272 26.9817C33.211 26.3685 34.5948 23.4557 32.1348 22.3826C31.2122 22.0759 29.9822 22.2292 29.0597 22.9958C28.9059 22.9958 28.9059 23.3024 28.7522 23.4557Z" fill="#333333"/>
<path d="M29.2133 23.609C29.6745 23.3024 30.4433 23.609 31.0583 24.5288C31.6733 25.2954 31.8271 26.2152 31.5196 26.5218C31.0583 26.8284 30.2896 26.5218 29.6745 25.602C29.0595 24.8354 28.9058 23.9156 29.2133 23.609Z" fill="#E9751C"/>
<path d="M38.8999 23.7623L40.8987 20.5429C40.7449 20.5429 40.7449 20.3896 40.5912 20.3896L38.5924 23.609C38.7461 23.609 38.7461 23.609 38.8999 23.7623Z" fill="#ADADAD"/>
<path d="M38.5925 23.609L40.5913 20.3896C39.9763 20.083 39.515 20.083 39.515 20.083L37.5162 23.3024C37.67 23.1491 37.9775 23.3024 38.5925 23.609Z" fill="#4E4E4E"/>
<path d="M42.8974 26.5219L44.8962 23.3025C44.8962 23.3025 44.8962 22.9959 44.5887 22.8426C44.1275 22.3826 43.2049 21.7694 42.4362 21.3095L40.4374 24.5289C41.3599 24.9888 42.1287 25.6021 42.5899 26.062C42.8974 26.3686 42.8974 26.5219 42.8974 26.5219Z" fill="#4E4E4E"/>
<path d="M40.4375 24.5289L42.4363 21.3095C41.975 21.0029 41.5138 20.6963 41.0525 20.543L39.0537 23.7624C39.3612 23.9157 39.8225 24.2223 40.4375 24.5289Z" fill="#ADADAD"/>
<path d="M38.8998 23.7624C37.6697 23.1492 37.0547 23.1492 37.8235 23.9157C38.5922 24.5289 40.1298 25.6021 41.5136 26.2153C42.8974 26.8285 43.3586 26.8285 42.5899 26.062C41.8211 25.4488 40.2835 24.3756 38.8998 23.7624Z" fill="#1A1A1A"/>
<path d="M44.8961 27.2883L47.2024 24.2222C47.0486 24.2222 47.0486 24.0689 46.8949 24.0689L44.5886 27.135C44.7423 27.135 44.7423 27.135 44.8961 27.2883Z" fill="#ADADAD"/>
<path d="M44.5887 26.9817L46.895 23.9156C46.28 23.609 45.9725 23.4557 45.8187 23.609L43.5124 26.6751C43.6662 26.6751 43.9737 26.6751 44.5887 26.9817Z" fill="#4E4E4E"/>
<path d="M48.5863 30.5078L50.8926 27.4417C50.8926 27.4417 50.8926 27.1351 50.5851 26.9818C50.1238 26.5218 49.355 25.7553 48.5863 25.1421L46.2799 28.2082C47.0487 28.8214 47.9712 29.4346 48.2788 30.0479C48.5863 30.2012 48.5863 30.3545 48.5863 30.5078Z" fill="#4E4E4E"/>
<path d="M46.2799 28.2082L48.5862 25.1421C48.1249 24.8354 47.6637 24.5288 47.2024 24.2222L44.8961 27.2883C45.3573 27.4416 45.8186 27.7482 46.2799 28.2082Z" fill="#ADADAD"/>
<path d="M44.8962 27.2883C43.6662 26.5218 43.2049 26.5218 43.8199 27.2883C44.4349 27.9016 45.9725 29.128 47.2025 29.8945C48.4326 30.6611 48.8938 30.6611 48.2788 29.8945C47.6638 29.128 46.1263 27.9016 44.8962 27.2883Z" fill="#1A1A1A"/>
<path d="M36.4398 26.6752L45.665 32.0409L37.6698 52.2771L29.6746 47.678L36.4398 26.6752Z" fill="#FFAF24"/>
<path d="M44.1274 34.4937L41.6674 40.4726L33.5184 35.8735L35.5172 29.7413C38.5923 31.2743 41.5136 32.8074 44.1274 34.4937Z" fill="#333333"/>
<path d="M43.9738 31.4276L22.4481 88.4571C22.2944 88.917 22.4481 89.5302 23.0632 89.6835C23.5244 89.8368 23.9857 89.6835 24.2932 89.2236L47.3564 32.654C47.6639 31.7342 47.3564 30.661 46.4338 30.3544C45.5113 30.0478 44.435 30.5077 43.9738 31.4276Z" fill="#333333"/>
<path d="M39.3611 21.9227L47.8176 26.6752C49.0476 27.4417 49.6626 28.8214 49.2013 30.2012L48.1251 33.7272C47.9713 34.1871 47.6638 34.647 47.2025 34.8003L44.5887 36.3334L33.6721 30.0479C33.2109 29.7413 32.9034 29.2813 32.9034 28.6681V26.0619C32.9034 24.9888 33.5184 24.069 34.4409 23.4557L37.0547 21.9227C37.6698 21.4628 38.5923 21.4628 39.3611 21.9227Z" fill="#333333"/>
<path d="M45.5112 33.1139C44.8962 34.4936 47.0487 37.2531 48.5863 36.6399C49.9701 36.0267 51.3539 33.1139 48.8938 32.0408C47.9713 31.7341 46.7412 31.8874 45.8187 32.654C45.8187 32.654 45.6649 32.9606 45.5112 33.1139Z" fill="#333333"/>
<path d="M46.1261 33.2672C46.5874 32.9606 47.3561 33.2672 47.9712 34.187C48.5862 34.9536 48.7399 35.8734 48.4324 36.18C47.9712 36.4866 47.2024 36.18 46.5874 35.2602C45.8186 34.4936 45.6648 33.5738 46.1261 33.2672Z" fill="#E9751C"/>
<path d="M50.7389 33.4206C51.6615 33.4206 52.584 33.2673 53.5065 32.8074C56.4279 31.2743 61.1943 28.9747 61.1943 28.9747C61.6555 28.6681 61.963 28.0549 61.6555 27.595C61.348 27.1351 60.733 26.8285 60.2717 27.1351C60.2717 27.1351 55.3516 29.588 52.4302 30.9677C51.2002 31.5809 49.8164 31.5809 48.7401 30.8144L47.6639 30.2012C47.2026 29.8946 46.4338 30.0479 46.2801 30.6611C45.9726 31.121 46.1263 31.8875 46.7413 32.0408L47.8176 32.6541C48.5864 33.114 49.6627 33.4206 50.7389 33.4206Z" fill="#4E4E4E"/>
<path d="M72.4183 33.1139C73.0333 33.1139 73.4946 32.8073 73.6483 32.1941C73.8021 31.4276 73.4946 30.8143 72.7258 30.5077L61.0405 26.6751C60.2717 26.5218 59.6567 26.8284 59.3492 27.5949C59.1954 28.3615 59.5029 28.9747 60.2717 29.2813L72.1108 33.1139C72.2645 33.1139 72.4183 33.1139 72.4183 33.1139Z" fill="#333333"/>
<path d="M28.4446 34.0337C26.907 37.5597 32.4422 44.4585 36.4398 42.9254C39.8224 41.5457 43.5125 34.0337 37.3623 31.1209C34.9023 30.2011 31.9809 30.661 29.6746 32.5007C28.9058 32.9606 28.5983 33.5738 28.4446 34.0337Z" fill="#4E4E4E"/>
<path d="M29.5208 34.0337C30.7509 33.1138 33.0572 34.187 34.9023 36.4865C36.7473 38.7861 37.2086 41.239 35.9785 42.1588C34.7485 43.0787 32.4422 42.0055 30.5971 39.7059C28.7521 37.4064 28.2908 34.9535 29.5208 34.0337Z" fill="#F0FDFF"/>
<path d="M24.9081 3.21939C25.5231 4.13922 26.7531 4.44583 27.9832 3.67931C29.0594 3.06609 29.5207 1.83964 29.0594 0.919813C28.4444 -1.86805e-05 27.2144 -0.306629 25.9843 0.459897C24.7543 1.22642 24.4468 2.29956 24.9081 3.21939Z" fill="#333333"/>
<path d="M72.5721 34.3403C73.6484 34.6469 74.7247 33.8804 75.1859 32.6539C75.6472 31.4275 75.0322 30.2011 74.1096 29.8945C73.0333 29.5878 71.9571 30.3544 71.4958 31.5808C71.0345 32.8073 71.4958 34.0337 72.5721 34.3403Z" fill="#333333"/>
<path opacity="0.8" d="M35.8247 23.7623C35.5172 24.2222 37.516 25.9086 40.2836 27.5949C43.0511 29.128 45.5112 30.0478 45.8187 29.5879C46.1262 29.128 36.1322 23.3024 35.8247 23.7623Z" fill="#333333"/>
<path opacity="0.8" d="M33.8259 31.7342C34.5946 32.0408 35.0559 32.654 34.7484 33.1139C34.4409 33.5738 33.5184 33.7271 32.7496 33.4205C31.9808 33.1139 31.5196 32.5007 31.8271 32.0408C32.1346 31.5809 33.0571 31.4276 33.8259 31.7342Z" fill="#4E4E4E"/>
<path d="M116.084 11.9578C117.622 11.9578 119.313 14.8706 118.237 16.0971C117.315 17.1702 113.932 17.4768 113.778 14.7173C113.778 13.6442 114.393 12.7244 115.316 12.1111C115.623 12.1111 115.931 11.9578 116.084 11.9578Z" fill="#333333"/>
</g>
<defs>
<linearGradient id="paint0_linear" x1="63.4221" y1="24.0646" x2="42.6075" y2="24.0646" gradientUnits="userSpaceOnUse">
<stop stop-color="#846918"/>
<stop offset="0.1443" stop-color="#9E7D1C"/>
<stop offset="0.4096" stop-color="#C89D21"/>
<stop offset="0.6501" stop-color="#E6B526"/>
<stop offset="0.8549" stop-color="#F8C328"/>
<stop offset="1" stop-color="#FFC829"/>
</linearGradient>
<clipPath id="clip0">
<rect width="129" height="109" fill="white" transform="matrix(-1 0 0 1 129 0)"/>
</clipPath>
</defs>
</svg>
