<svg width="184" height="143" viewBox="0 0 184 143" fill="none" xmlns="http://www.w3.org/2000/svg">
<g clip-path="url(#clip0)">
<path d="M0.680397 91.6094C0.777597 91.5123 0.972006 91.5123 1.06921 91.6094L2.7216 92.5809C3.0132 92.7752 3.30481 93.1638 3.30481 93.5524V99.6726C3.30481 99.8669 3.2076 99.964 3.1104 100.061L2.6244 100.353L0.194397 91.9009L0.680397 91.6094Z" fill="#CD8005"/>
<path d="M3.05176e-05 92.1923C3.05176e-05 91.8037 0.291637 91.7066 0.583238 91.9009L2.23564 92.8723C2.52724 93.0666 2.81885 93.4552 2.81885 93.8438V99.964C2.81885 100.353 2.52724 100.45 2.23564 100.255L0.583238 99.284C0.291637 99.0897 3.05176e-05 98.7011 3.05176e-05 98.3125V92.1923Z" fill="#EE9D11"/>
<path d="M1.94405 92.5809C2.04125 92.5809 2.13844 92.4837 2.13844 92.3866V88.5007L7.29006 85.4892C8.74807 84.6148 11.1781 84.6148 12.6361 85.4892L16.1353 87.5292C16.2325 87.6264 16.3297 87.5292 16.4269 87.4321C16.5241 87.3349 16.4269 87.2378 16.3297 87.1406L12.8305 85.1006C11.2753 84.2262 8.65087 84.2262 7.09567 85.1006L1.84686 88.1121C1.74965 88.1121 1.74965 88.2093 1.74965 88.3064V92.2894C1.74965 92.4837 1.84685 92.5809 1.94405 92.5809Z" fill="#47433F"/>
<path d="M1.36081 92.1923C1.45801 92.1923 1.55521 92.0952 1.55521 91.998V89.1808L2.1384 88.5979C2.2356 88.5007 2.2356 88.4036 2.1384 88.3064C2.0412 88.2093 1.94401 88.2093 1.84681 88.3064L1.2636 88.8893L1.1664 88.9865V91.9009C1.1664 92.0952 1.26361 92.1923 1.36081 92.1923Z" fill="#47433F"/>
<path d="M80.3846 105.307L88.5494 107.833L87.869 114.827L85.5362 119.782L70.1786 110.942L80.3846 105.307Z" fill="#26231F"/>
<path d="M153.771 63.0482L161.936 65.4769L161.255 72.4714L158.922 77.4259L143.565 68.5856L153.771 63.0482Z" fill="#26231F"/>
<path d="M72.9975 111.816C74.8443 110.747 76.5939 110.65 77.8575 111.33L82.1343 113.759L72.5115 130.274L68.2347 127.845C67.0683 127.165 66.2907 125.611 66.2907 123.473C66.1935 119.296 69.2067 114.05 72.9975 111.816Z" fill="#26231F"/>
<path d="M72.373 130.425C69.7231 128.896 69.7292 123.928 72.3864 119.328C75.0437 114.728 79.346 112.239 81.9958 113.768C84.6457 115.297 84.6397 120.265 81.9824 124.865C79.3251 129.465 75.0229 131.955 72.373 130.425Z" fill="#3F3932"/>
<path d="M77.1771 127.942C79.8987 126.485 82.1343 122.696 82.1343 119.49C82.1343 116.382 79.9959 115.022 77.3715 116.479C74.6499 117.936 72.4143 121.725 72.4143 124.931C72.4143 128.137 74.5527 129.399 77.1771 127.942Z" fill="#A8A8A8"/>
<path d="M77.7603 126.291C79.5099 125.319 80.9679 122.891 80.9679 120.753C80.9679 118.713 79.6071 117.839 77.8575 118.81C76.1079 119.782 74.6499 122.211 74.6499 124.348C74.5527 126.388 76.0107 127.262 77.7603 126.291Z" fill="#A8A8A8"/>
<path d="M73.1918 124.834C73.1918 124.736 73.1918 124.639 73.1918 124.542C73.1918 123.279 73.6778 121.919 74.3582 120.656C75.1358 119.296 76.205 118.033 77.4686 117.353C79.8014 116.09 81.551 117.256 81.551 119.879C81.551 122.599 79.607 125.805 77.3714 127.068C75.0386 128.331 73.289 127.262 73.1918 124.834ZM77.7602 126.291C79.5098 125.319 80.9678 122.891 80.9678 120.753C80.9678 118.713 79.607 117.839 77.8574 118.81C76.8854 119.296 76.1078 120.268 75.5246 121.336C75.0386 122.308 74.6498 123.376 74.6498 124.348C74.6498 124.445 74.6498 124.542 74.6498 124.639C74.6498 126.388 76.0106 127.165 77.7602 126.291Z" fill="#BEBEBE"/>
<path d="M74.2611 120.656L75.4275 121.336C74.9415 122.308 74.5527 123.376 74.5527 124.348C74.5527 124.445 74.5527 124.542 74.5527 124.639L73.0947 124.931C73.0947 124.834 73.0947 124.736 73.0947 124.639C73.1919 123.279 73.5807 121.919 74.2611 120.656Z" fill="#E4E4E4"/>
<path d="M146.578 69.3628C148.425 68.2942 150.174 68.197 151.438 68.8771L155.715 71.3057L146.092 87.8207L141.815 85.392C140.649 84.712 139.871 83.1576 139.871 81.0204C139.871 76.746 142.884 71.5 146.578 69.3628Z" fill="#26231F"/>
<path d="M146.025 87.9925C143.375 86.4634 143.381 81.4949 146.039 76.895C148.696 72.2951 152.998 69.8058 155.648 71.3349C158.298 72.864 158.292 77.8325 155.635 82.4324C152.977 87.0322 148.675 89.5216 146.025 87.9925Z" fill="#3F3932"/>
<path d="M147.519 85.7498C145.61 84.6554 145.6 81.0896 147.496 77.7854C149.392 74.4812 152.477 72.6898 154.386 73.7841C156.295 74.8785 156.306 78.4443 154.41 81.7485C152.513 85.0527 149.429 86.8442 147.519 85.7498Z" fill="#A8A8A8"/>
<path d="M151.341 83.7405C153.09 82.769 154.548 80.3404 154.548 78.2031C154.548 76.1631 153.188 75.2887 151.438 76.2602C149.688 77.2317 148.23 79.6603 148.23 81.7976C148.23 83.8377 149.591 84.712 151.341 83.7405Z" fill="#A8A8A8"/>
<path d="M146.772 82.3805C146.772 82.2834 146.772 82.1862 146.772 82.0891C146.772 80.8261 147.258 79.4661 147.939 78.2032C148.716 76.8431 149.786 75.5802 151.049 74.9002C153.382 73.6373 155.132 74.803 155.132 77.426C155.132 80.049 153.188 83.352 150.952 84.6149C148.619 85.7806 146.87 84.8092 146.772 82.3805ZM151.341 83.7405C153.09 82.7691 154.548 80.3404 154.548 78.2032C154.548 76.1631 153.188 75.2888 151.438 76.2603C150.466 76.746 149.688 77.7175 149.105 78.7861C148.619 79.7575 148.23 80.8261 148.23 81.7976C148.23 81.8948 148.23 81.9919 148.23 82.0891C148.328 83.9348 149.688 84.712 151.341 83.7405Z" fill="#BEBEBE"/>
<path d="M147.939 78.2032L149.105 78.8832C148.619 79.8547 148.23 80.9233 148.23 81.8948C148.23 81.9919 148.23 82.0891 148.23 82.1862L146.772 82.4776C146.772 82.3805 146.772 82.2833 146.772 82.1862C146.772 80.8261 147.258 79.4661 147.939 78.2032Z" fill="#E4E4E4"/>
<path d="M11.4697 114.827C11.4697 114.633 11.5669 114.439 11.7613 114.245L11.9557 114.147L12.0529 88.8893L11.7613 88.695C11.5669 88.5978 11.4697 88.4035 11.4697 88.2093V81.3118L45.2954 100.935V107.93C45.4898 107.93 45.6842 107.93 45.7814 107.833L48.6974 106.084C48.6974 106.084 48.7946 106.084 48.7946 106.181V131.537C48.7946 131.828 48.6002 132.12 48.4058 132.217L45.8785 133.674C45.6841 133.771 45.3926 133.868 45.1981 133.868V143.097L11.3725 123.474L11.4697 114.827ZM15.3577 100.741C15.3577 101.227 15.8437 101.518 16.2325 101.227L24.8833 96.2724L15.3577 90.7351V100.741Z" fill="#EE9D11"/>
<path d="M11.9556 114.147L12.0528 88.8893L15.3577 90.8322V100.838C15.3577 101.324 15.8436 101.616 16.2324 101.324L24.8833 96.3696L44.8093 107.833C45.0037 107.93 45.1981 107.93 45.3925 107.93C45.5869 107.93 45.7813 107.93 45.8785 107.833L48.7945 106.084C48.7945 106.084 48.8917 106.084 48.8917 106.181V131.537C48.8917 131.828 48.6973 132.12 48.5029 132.217L45.9757 133.674C45.8785 133.771 45.7813 133.771 45.6841 133.771C45.5869 133.771 45.4897 133.771 45.2953 133.771C45.1009 133.771 44.8093 133.674 44.6149 133.577L12.0528 114.827C11.9556 114.827 11.9556 114.73 11.9556 114.633V114.147Z" fill="#282523"/>
<path d="M184 19.6236L150.077 0L12.636 79.3689L46.4617 98.9925L184 19.6236Z" fill="#FFBC27"/>
<path d="M11.664 80.4375C11.7612 80.1461 11.9556 79.9518 12.15 79.7575C12.3444 79.5632 12.4416 79.466 12.636 79.3689L46.4617 98.9925C46.2673 99.0897 46.0729 99.284 45.9757 99.3811C45.7813 99.5754 45.6841 99.8669 45.4897 100.061C45.3925 100.353 45.2953 100.644 45.2953 100.935L11.4696 81.3118C11.4696 81.0204 11.5668 80.729 11.664 80.4375Z" fill="#FFCB39"/>
<path d="M45.9757 133.674L48.5029 132.217C48.7945 132.022 48.8917 131.828 48.8917 131.537V106.181L48.7945 106.084L45.8785 107.833C45.6841 107.93 45.4897 107.93 45.3925 107.93V100.935C45.3925 100.255 45.8785 99.284 46.5589 98.9925L184 19.6237V58.9681C184 59.7453 183.708 60.4253 183.125 60.911L174.766 68.2942L159.02 77.426V74.7059C159.02 69.6542 155.423 67.6141 151.049 70.14C146.675 72.6658 143.079 78.786 143.079 83.8377V86.5578L85.6334 119.685V116.965C85.6334 111.913 82.037 109.873 77.663 112.399C73.289 114.925 69.6926 121.045 69.6926 126.096V128.817L45.3925 142.903V133.674C45.5869 133.771 45.7813 133.771 45.9757 133.674ZM168.059 40.1216L180.89 47.5048V30.4069C180.89 30.1155 180.598 29.9212 180.306 30.0184L168.545 36.8186C168.254 37.0129 167.962 37.4015 167.962 37.7901V40.1216H168.059ZM166.796 39.3444V38.6644C166.796 38.373 166.504 38.1787 166.212 38.2758L165.629 38.6644L166.796 39.3444Z" fill="#CD8005"/>
<path d="M121.209 42.9389L174.572 12.0462V14.3777L121.209 45.1732V42.9389Z" fill="#CD8005"/>
<path d="M104.49 35.5557L121.209 45.1732V42.9388L104.49 33.3213V35.5557Z" fill="#EE9D11"/>
<path d="M121.209 42.9388L174.572 12.0462L157.95 2.42865L104.49 33.3213L121.209 42.9388Z" fill="#FFBC27"/>
<path d="M182.736 25.841V48.5733L52.1966 123.862V101.227L182.736 25.841ZM168.059 40.1216L180.89 47.5047V30.4069C180.89 30.1155 180.598 29.9212 180.306 30.0183L168.545 36.8186C168.254 37.0129 167.962 37.4015 167.962 37.7901V40.1216H168.059ZM166.796 39.3444V38.6644C166.796 38.3729 166.504 38.1786 166.212 38.2758L165.629 38.6644L166.796 39.3444Z" fill="#282523"/>
<path d="M50.2525 140.183L67.943 129.885V92.0951L50.2525 102.296V140.183Z" fill="#282523"/>
<path d="M108.67 106.473L126.458 96.1753V58.288L108.67 68.5856V106.473Z" fill="#282523"/>
<path opacity="0.8" d="M45.8785 107.833L48.7945 106.084C48.7945 106.084 48.8917 106.084 48.8917 106.181V131.537C48.8917 131.828 48.6973 132.12 48.5029 132.217L45.9757 133.674C45.5869 133.868 45.0037 133.868 44.6149 133.674L12.0528 114.925C11.9556 114.925 11.9556 114.827 11.9556 114.73L12.0528 88.9864L44.8093 107.833C45.1009 107.93 45.5869 107.93 45.8785 107.833Z" fill="url(#paint0_linear)"/>
<path opacity="0.8" d="M118.098 93.5523L125.194 89.4721V62.0767L118.098 66.1569V93.5523ZM109.933 70.82L117.029 66.7398V94.1352L109.933 98.2153V70.82ZM59.7782 127.262L66.8738 123.182V95.6895L59.7782 99.7697V127.262ZM51.6134 104.53L58.709 100.45V127.845L51.6134 131.925V104.53ZM89.9102 100.547L107.795 90.2493C108.087 90.055 108.281 89.7636 108.281 89.4721V72.3743C108.281 72.0829 107.989 71.8886 107.698 71.9857L89.6187 82.4776C89.327 82.6719 89.0355 83.0604 89.0355 83.449V100.061C89.0355 100.45 89.5214 100.741 89.9102 100.547ZM68.429 111.913V95.3009C68.429 94.9123 68.6234 94.5238 69.0122 94.3295L87.0914 83.9348C87.383 83.7405 87.6746 83.9348 87.6746 84.3234V101.324C87.6746 101.615 87.4802 102.004 87.1886 102.101L69.3038 112.399C68.915 112.593 68.429 112.302 68.429 111.913ZM147.55 66.2541V49.642C147.55 49.2534 147.744 48.8648 148.133 48.6705L166.212 38.2758C166.504 38.0815 166.796 38.2758 166.796 38.6644V55.6651C166.796 55.9565 166.601 56.3451 166.31 56.4422L148.425 66.7398C148.036 67.0312 147.55 66.7398 147.55 66.2541ZM126.944 78.106V61.591C126.944 61.2024 127.138 60.8138 127.527 60.6195L145.606 50.1277C145.898 49.9334 146.189 50.1277 146.189 50.5163V67.517C146.189 67.8084 145.995 68.197 145.703 68.2941L127.916 78.6888C127.43 78.8831 126.944 78.5917 126.944 78.106ZM168.059 54.4022V37.7901C168.059 37.4015 168.254 37.0129 168.642 36.8186L180.306 30.1155C180.598 29.9212 180.89 30.1155 180.89 30.5041V47.5047C180.89 47.7962 180.695 48.1848 180.404 48.2819L168.934 54.8879C168.545 55.1793 168.059 54.8879 168.059 54.4022Z" fill="#35312D"/>
<path d="M44.9065 117.159C45.0037 117.062 45.1981 117.062 45.2953 117.159L46.9477 118.13C47.2393 118.325 47.5309 118.713 47.5309 119.102V125.222C47.5309 125.416 47.4337 125.514 47.3365 125.611L46.8505 125.902L44.4205 117.45L44.9065 117.159Z" fill="#CD8005"/>
<path d="M44.3233 117.742C44.3233 117.353 44.6149 117.256 44.9065 117.45L46.5589 118.422C46.8505 118.616 47.1421 119.005 47.1421 119.393V125.514C47.1421 125.902 46.8505 125.999 46.5589 125.805L44.9065 124.834C44.6149 124.639 44.3233 124.251 44.3233 123.862V117.742Z" fill="#EE9D11"/>
<path d="M45.5869 117.742C45.6841 117.742 45.7813 117.645 45.7813 117.548V113.759L50.9329 110.747C51.7105 110.262 52.1965 109.679 52.1965 108.999C52.1965 108.319 51.7105 107.736 50.9329 107.25L47.4337 105.21C47.3365 105.113 47.2393 105.21 47.1421 105.307C47.0449 105.404 47.1421 105.501 47.2393 105.598L50.7385 107.639C51.4189 108.027 51.8077 108.513 51.8077 109.096C51.8077 109.582 51.4189 110.164 50.7385 110.553L45.4897 113.565C45.3925 113.565 45.3925 113.662 45.3925 113.759V117.645C45.3925 117.645 45.4897 117.742 45.5869 117.742Z" fill="#47433F"/>
<path d="M46.2673 118.13C46.3645 118.13 46.4617 118.033 46.4617 117.936V114.827V114.73L45.7813 113.565C45.6841 113.467 45.5869 113.467 45.4897 113.467C45.3925 113.565 45.3925 113.662 45.3925 113.759L46.0729 114.925V118.033C46.0729 118.033 46.1701 118.13 46.2673 118.13Z" fill="#47433F"/>
<path opacity="0.3" d="M44.7121 69.9457L61.9165 79.8546L79.121 69.9457L61.9165 60.0367L44.7121 69.9457Z" fill="#EE9D11"/>
<path d="M61.9165 61.2024L45.7813 70.5285L44.7121 69.9456L61.9165 60.0367L79.121 69.9456L78.0518 70.5285L61.9165 61.2024Z" fill="#EE9D11"/>
<path d="M37.2276 133.285L43.5457 136.88V134.84L37.2276 131.245V133.285Z" fill="#FDFFEF"/>
<path d="M43.2541 136.783L45.2953 137.851V135.811L43.2541 134.742V136.783Z" fill="#E9751C"/>
<path d="M46.0729 137.463L45.2953 137.851V135.811L46.0729 135.423V137.463Z" fill="#CB5E12"/>
<path d="M19.4401 122.988L13.2193 119.393V117.353L19.4401 120.948V122.988Z" fill="#FDFFEF"/>
<path d="M13.4137 119.491L11.3725 118.325V116.285L13.4137 117.45V119.491Z" fill="#E9751C"/>
<path opacity="0.9" d="M20.898 122.211L35.7697 130.76V130.371L20.898 121.822V122.211ZM20.898 122.599L35.7697 131.148V131.537L20.898 122.988V122.599ZM20.898 123.376L35.7697 131.925V132.314L20.898 123.765V123.376ZM20.898 124.154L35.7697 132.702V133.091L20.898 124.542V124.154ZM20.898 124.931L35.7697 133.48V133.868L20.898 125.319V124.931ZM20.898 125.708L35.7697 134.257V134.645L20.898 126.096V125.708Z" fill="#CD8005"/>
<path d="M13.9969 89.9579L42.5737 106.473V100.741L13.9969 84.2262V89.9579Z" fill="#282523"/>
<path d="M37.5193 101.518L41.2129 103.656V102.004L37.5193 99.8669V101.518ZM30.0349 95.5924L35.8669 98.8954V100.547L30.0349 97.2439V95.5924ZM24.4944 92.3866L28.3824 94.6209V96.2724L24.4944 94.038V92.3866ZM15.3576 87.1406L18.1764 88.7921V90.3465L15.3576 88.695V87.1406Z" fill="#E9751C"/>
<path d="M86.7026 112.01L87.9662 111.233C88.1606 111.136 88.355 110.844 88.355 110.65V110.456C88.355 110.262 88.1606 110.164 87.9662 110.359L86.7026 111.136C86.5082 111.233 86.3138 111.524 86.3138 111.719V111.913C86.411 112.107 86.5082 112.204 86.7026 112.01ZM179.237 58.3852V58.1909C179.237 57.9966 179.432 57.8023 179.626 57.608L180.89 56.8308C181.084 56.7337 181.278 56.8308 181.278 56.928V57.1223C181.278 57.3166 181.084 57.5109 180.89 57.7052L179.626 58.4823C179.334 58.5795 179.237 58.4823 179.237 58.3852Z" fill="#CB5E12"/>
<path d="M145.606 50.1277C145.897 49.9334 146.189 50.1277 146.189 50.5163V53.8193L126.943 64.894V61.4939C126.943 61.1053 127.138 60.7167 127.527 60.5224L145.606 50.1277Z" fill="#282523"/>
<path d="M143.079 54.2079L145.703 52.6536V51.4878L143.079 53.0421V54.2079ZM137.83 56.0537L141.912 53.7222V54.8879L137.83 57.2195V56.0537ZM133.845 58.3852L136.566 56.8309V57.9966L133.845 59.551V58.3852ZM127.429 62.0768L129.373 60.911V62.0768L127.429 63.2425V62.0768Z" fill="#E9751C"/>
<path d="M141.232 14.1834L153.868 21.5666L170.489 12.0462L157.756 4.66302L141.232 14.1834Z" fill="#35312D"/>
</g>
<defs>
<linearGradient id="paint0_linear" x1="42.5233" y1="120.328" x2="10.5512" y2="94.1119" gradientUnits="userSpaceOnUse">
<stop stop-color="#35312D"/>
<stop offset="1" stop-color="#4D4641"/>
</linearGradient>
<clipPath id="clip0">
<rect width="184" height="143" fill="white" transform="matrix(-1 0 0 1 184 0)"/>
</clipPath>
</defs>
</svg>
